{"title":"24.S08E12.PROPER.HDTV.XviD-2HD.eztv","uid":5436867,"size":366574578,"categoryP":"video","categoryS":"tv_shows","magnet":"?xt=urn:btih:918e7bc2a28f825daed4ab3674795aadcca1856f&amp;dn=24.S08E12.PROPER.HDTV.XviD-2HD.eztv&amp;tr=udp%3A%2F%2Ftracker.openbittorrent.com%3A80&amp;tr=udp%3A%2F%2Fopen.demonii.com%3A1337&amp;tr=udp%3A%2F%2Ftracker.coppersurfer.tk%3A6969&amp;tr=udp%3A%2F%2Fexodus.desync.com%3A6969","seeders":2,"leechers":0,"uploader":"babel55","files":1,"time":1268771331,"description":"JUST CUZ EZTV DIDN'T POSTED IT HERE!\n\n\nGeneral\nComplete name                    : 24.S08E12.PROPER.HDTV.XviD-2HD.avi\nFormat                           : AVI\nFormat/Info                      : Audio Video Interleave\nFile size                        : 350 MiB\nDuration                         : 42mn 38s\nOverall bit rate                 : 1 146 Kbps\nWriting application              : MEncoder dev-SVN-r26940\nWriting library                  : MPlayer\n\nVideo\nID                               : 0\nFormat                           : MPEG-4 Visual\nFormat profile                   : Advanced Simple@L5\nFormat settings, BVOP            : Yes\nFormat settings, QPel            : No\nFormat settings, GMC             : No warppoints\nFormat settings, Matrix          : Default (H.263)\nCodec ID                         : XVID\nCodec ID/Hint                    : XviD\nDuration                         : 42mn 38s\nBit rate                         : 1 005 Kbps\nWidth                            : 624 pixels\nHeight                           : 352 pixels\nDisplay aspect ratio             : 16:9\nFrame rate                       : 23.976 fps\nResolution                       : 8 bits\nColorimetry                      : 4:2:0\nScan type                        : Progressive\nBits/(Pixel*Frame)               : 0.191\nStream size                      : 307 MiB (88%)\nWriting library                  : XviD 1.2.1 (UTC 2008-12-04)\n\nAudio\nID                               : 1\nFormat                           : MPEG Audio\nFormat version                   : Version 1\nFormat profile                   : Layer 3\nMode                             : Joint stereo\nFormat_Settings_ModeExtension    : MS Stereo\nCodec ID                         : 55\nCodec ID/Hint                    : MP3\nDuration                         : 42mn 38s\nBit rate mode                    : Variable\nBit rate                         : 128 Kbps\nChannel(s)                       : 2 channels\nSampling rate                    : 48.0 KHz\nStream size                      : 39.1 MiB (11%)\nAlignment                        : Aligned on interleaves\nInterleave, duration             : 24 ms (0.58 video frame)\nInterleave, preload duration     : 477 ms\n","torrent":{"xt":"urn:btih:918e7bc2a28f825daed4ab3674795aadcca1856f","amp;dn":"24.S08E12.PROPER.HDTV.XviD-2HD.eztv","amp;tr":["udp%3A%2F%2Ftracker.openbittorrent.com%3A80","udp%3A%2F%2Fopen.demonii.com%3A1337","udp%3A%2F%2Ftracker.coppersurfer.tk%3A6969","udp%3A%2F%2Fexodus.desync.com%3A6969"],"infoHash":"918e7bc2a28f825daed4ab3674795aadcca1856f","infoHashBuffer":{"type":"Buffer","data":[145,142,123,194,162,143,130,93,174,212,171,54,116,121,90,173,204,161,133,111]},"announce":[],"urlList":[]}}